<?xml version="1.0" standalone="no"?>
<!DOCTYPE svg PUBLIC "-//W3C//DTD SVG 20010904//EN"
 "http://www.w3.org/TR/2001/REC-SVG-20010904/DTD/svg10.dtd">
<svg version="1.0" xmlns="http://www.w3.org/2000/svg"
 width="700.000000pt" height="700.000000pt" viewBox="0 0 700.000000 700.000000"
 preserveAspectRatio="xMidYMid meet">
<metadata>
Created by potrace 1.14, written by Peter Selinger 2001-2017
</metadata>
<g transform="translate(0.000000,700.000000) scale(0.100000,-0.100000)"
fill="#000000" stroke="none">
<path d="M2542 5519 c-46 -23 -83 -65 -102 -114 -12 -32 -15 -67 -25 -315 -4
-91 -8 -192 -10 -225 -11 -223 -16 -318 -20 -375 -8 -110 -14 -201 -20 -290
-5 -88 -12 -185 -20 -280 -3 -30 -7 -84 -10 -120 -3 -36 -7 -85 -10 -110 -3
-25 -7 -72 -10 -105 -8 -89 -15 -156 -20 -195 -2 -19 -7 -60 -10 -90 -3 -30
-8 -66 -10 -80 -3 -14 -7 -47 -10 -75 -3 -27 -7 -61 -10 -75 -25 -131 -15
-203 38 -266 102 -121 327 -63 353 90 3 23 8 50 10 61 2 11 6 40 9 65 3 25 12
97 20 160 18 143 24 201 30 265 3 28 7 71 10 98 12 117 16 158 30 335 3 32 7
86 10 122 10 123 14 185 20 280 3 52 8 120 10 150 3 30 7 102 10 160 3 58 7
139 10 180 5 82 12 252 20 455 3 72 1 146 -5 164 -35 124 -174 186 -288 130z"/>
<path d="M6193 4283 c-33 -6 -110 -80 -122 -116 -29 -89 -19 -133 56 -252 167
-269 214 -514 125 -654 -101 -158 -384 -317 -842 -471 -150 -51 -166 -60 -205
-113 -27 -37 -30 -50 -30 -113 0 -62 4 -76 29 -112 39 -57 85 -83 155 -89 50
-5 77 1 197 42 449 152 777 328 933 499 20 22 41 44 46 50 46 48 115 176 139
260 24 82 27 106 31 211 6 208 -64 436 -210 676 -31 52 -69 107 -83 123 -51
54 -132 76 -219 59z"/>
<path d="M3810 4207 c-3 -3 -17 -8 -30 -11 -88 -17 -209 -82 -310 -165 -152
-128 -313 -337 -371 -483 -97 -247 -27 -476 189 -616 32 -20 60 -40 62 -43 5
-7 -11 -31 -79 -118 -174 -221 -451 -492 -732 -719 -43 -34 -89 -77 -103 -95
-98 -130 -1 -317 165 -317 41 0 113 29 147 59 9 9 42 36 72 61 336 272 665
613 880 912 l84 116 155 1 c147 0 184 2 285 16 515 74 901 426 1030 942 55
221 54 314 -6 387 -46 56 -99 79 -170 74 -111 -8 -180 -87 -193 -218 -4 -36
-13 -92 -21 -125 -8 -33 -16 -67 -18 -75 -11 -44 -61 -151 -100 -214 -136
-216 -355 -344 -636 -372 -120 -11 -113 -17 -80 75 97 266 122 546 65 746 -18
63 -71 127 -130 155 -43 21 -144 38 -155 27z m-104 -534 c-3 -16 -8 -44 -11
-63 -15 -90 -53 -209 -105 -323 l-21 -48 -51 28 c-28 15 -54 36 -58 48 -11 31
17 99 81 194 49 73 152 191 166 191 3 0 2 -12 -1 -27z"/>
<path d="M1706 4109 c-85 -24 -141 -102 -151 -214 -3 -38 -8 -81 -10 -95 -3
-14 -7 -41 -10 -60 -66 -413 -317 -907 -650 -1275 -74 -84 -219 -226 -290
-285 -27 -23 -61 -52 -75 -64 -14 -12 -54 -43 -90 -70 -86 -64 -117 -102 -130
-156 -14 -57 -6 -103 25 -157 36 -60 85 -87 164 -89 73 -3 95 6 186 74 58 44
213 171 246 202 236 220 401 409 550 631 219 324 390 726 455 1064 2 11 6 31
9 45 10 45 13 64 20 130 13 109 13 133 -1 180 -29 100 -147 167 -248 139z"/>
<path d="M4630 2574 c-63 -12 -135 -25 -159 -29 -25 -3 -47 -8 -50 -9 -3 -2
-33 -7 -66 -11 -32 -3 -62 -8 -65 -10 -3 -1 -34 -6 -70 -9 -36 -4 -80 -9 -98
-11 -17 -2 -71 -7 -120 -10 -106 -8 -160 -31 -201 -87 -75 -102 -38 -254 75
-308 34 -17 61 -21 126 -21 46 1 92 3 103 5 12 2 52 7 90 11 64 6 135 15 240
30 22 3 76 13 120 21 44 9 91 17 105 20 97 18 180 39 210 54 148 76 152 271 7
363 -41 27 -118 27 -247 1z"/>
</g>
</svg>
