<svg width="200" height="200" viewBox="0 0 200 200" fill="none" xmlns="http://www.w3.org/2000/svg">
<path opacity="0.32" d="M42.993 134.377L118.817 166.333C122.623 167.937 126.994 167.393 130.291 164.907L158.181 143.861C158.961 143.278 159.37 142.322 159.251 141.355C159.132 140.388 158.504 139.558 157.605 139.182L74.674 104.273L42.2924 128.784C41.3649 129.486 40.8824 130.629 41.027 131.783C41.1716 132.937 41.9211 133.926 42.993 134.377Z" fill="#919BAA"/>
<path d="M43.6687 132.776L120.469 165.132C123.084 166.234 126.089 165.858 128.351 164.144L156.229 143.136C157.751 141.983 158.543 140.106 158.305 138.211C158.068 136.317 156.837 134.693 155.078 133.952L78.9156 101.845C76.2596 100.722 73.2057 101.104 70.9078 102.846L42.5927 124.192C41.1764 125.273 40.4416 127.026 40.6632 128.793C40.8848 130.561 42.0295 132.078 43.6687 132.776Z" fill="#F1F4F5"/>
<path d="M43.1057 123.817C41.0287 125.381 41.2914 127.496 43.6938 128.509L119.718 160.54C122.441 161.51 125.462 161.134 127.863 159.527L155.603 138.594C157.68 137.03 157.417 134.915 155.015 133.902L78.9907 101.845C76.2682 100.876 73.2472 101.251 70.8453 102.859L43.1057 123.817Z" fill="#3A304D"/>
<path d="M79.3285 102.984C76.6024 102.008 73.5748 102.384 71.1705 103.998L45.9333 122.954C43.8563 124.518 44.1066 126.62 46.5089 127.633L119.38 158.338C122.103 159.308 125.124 158.932 127.526 157.325L152.688 138.344C154.765 136.78 154.502 134.665 152.1 133.652L79.3285 102.984Z" fill="#EAF2FF"/>
<path d="M49.95 119.863L51.001 120.313C52.1716 120.803 53.5141 120.637 54.5294 119.876L69.2063 108.802C69.5388 108.551 69.7119 108.142 69.6602 107.729C69.6086 107.316 69.34 106.962 68.956 106.8L67.8674 106.337L49.95 119.863Z" fill="#3A304D"/>
<ellipse cx="149.681" cy="145.985" rx="0.575562" ry="0.5" transform="rotate(-66.98 149.681 145.985)" fill="#6C667F"/>
<ellipse cx="151.16" cy="144.878" rx="0.575562" ry="0.5" transform="rotate(-66.98 151.16 144.878)" fill="#6C667F"/>
<ellipse cx="152.657" cy="143.761" rx="0.575562" ry="0.5" transform="rotate(-66.98 152.657 143.761)" fill="#6C667F"/>
<ellipse cx="154.13" cy="142.638" rx="0.575562" ry="0.5" transform="rotate(-66.98 154.13 142.638)" fill="#6C667F"/>
<ellipse cx="155.609" cy="141.52" rx="0.575562" ry="0.5" transform="rotate(-66.98 155.609 141.52)" fill="#6C667F"/>
<ellipse cx="129.817" cy="160.997" rx="0.575562" ry="0.5" transform="rotate(-66.98 129.817 160.997)" fill="#6C667F"/>
<ellipse cx="131.285" cy="159.886" rx="0.575562" ry="0.5" transform="rotate(-66.98 131.285 159.886)" fill="#6C667F"/>
<ellipse cx="132.769" cy="158.768" rx="0.575562" ry="0.5" transform="rotate(-66.98 132.769 158.768)" fill="#6C667F"/>
<ellipse cx="134.266" cy="157.638" rx="0.575562" ry="0.5" transform="rotate(-66.98 134.266 157.638)" fill="#6C667F"/>
<ellipse cx="135.745" cy="156.532" rx="0.575562" ry="0.5" transform="rotate(-66.98 135.745 156.532)" fill="#6C667F"/>
<path d="M144.317 149.792L141.026 152.295C140.696 152.572 140.519 152.991 140.551 153.421C140.551 153.809 140.889 153.934 141.201 153.696L144.492 151.194C144.822 150.922 145 150.507 144.968 150.08C144.918 149.68 144.63 149.555 144.317 149.792Z" fill="#6C667F"/>
<path d="M67.9676 141.071L63.1879 139.032H63.1253C62.7625 138.882 62.5122 139.032 62.5623 139.457C62.6366 139.883 62.9114 140.246 63.3005 140.433L68.0802 142.473H68.1427C68.4931 142.623 68.7558 142.473 68.7058 142.047C68.6258 141.624 68.3527 141.263 67.9676 141.071Z" fill="white"/>
<path d="M49.6746 133.276L47.4724 132.338C47.2097 132.225 47.0095 132.338 47.047 132.663C47.1063 132.985 47.3154 133.259 47.6101 133.401L49.8247 134.352C50.1 134.465 50.2877 134.352 50.2501 134.027C50.192 133.698 49.9772 133.418 49.6746 133.276Z" fill="#D1D3D3"/>
<path d="M49.4492 133.439L47.6975 132.688C47.5599 132.688 47.4723 132.688 47.4848 132.851C47.5183 133.006 47.6191 133.139 47.7601 133.214L49.5243 133.964C49.662 133.964 49.7495 133.964 49.737 133.802C49.7083 133.64 49.6001 133.504 49.4492 133.439Z" fill="#EF7389"/>
<path d="M60.1724 137.743H60.1098L55.3302 135.628C54.9673 135.478 54.7171 135.628 54.7671 136.054C54.8374 136.481 55.1135 136.846 55.5053 137.03L60.285 139.082H60.3476C60.6979 139.232 60.9481 139.082 60.9106 138.656C60.8133 138.257 60.5425 137.922 60.1724 137.743Z" fill="white"/>
<path d="M67.6922 141.372H67.6296L62.8624 139.332H62.7999C62.437 139.182 62.1868 139.332 62.2368 139.757C62.3111 140.183 62.586 140.546 62.9751 140.733L67.7547 142.773H67.8173C68.1676 142.923 68.4304 142.773 68.3803 142.348C68.3114 141.934 68.0581 141.575 67.6922 141.372Z" fill="#F1F4F5"/>
<path d="M59.897 138.031H59.8344L55.0548 135.979C54.6919 135.829 54.4417 135.979 54.4917 136.404C54.562 136.831 54.8381 137.196 55.2299 137.38L60.0096 139.432C60.36 139.582 60.6102 139.432 60.5727 139.007C60.4999 138.599 60.2533 138.243 59.897 138.031Z" fill="#F1F4F5"/>
<path d="M91.3653 111.305C89.6926 110.704 87.834 110.937 86.3605 111.93L65.0897 127.996C64.4938 128.277 64.145 128.908 64.2246 129.562C64.3042 130.215 64.7942 130.744 65.44 130.874L107.982 148.779C109.652 149.385 111.512 149.157 112.986 148.166L134.257 132.1C134.853 131.817 135.2 131.184 135.118 130.53C135.035 129.875 134.542 129.348 133.894 129.222L91.3653 111.305Z" fill="white"/>
<path fill-rule="evenodd" clip-rule="evenodd" d="M85.8475 134.377C85.2469 134.815 85.322 135.416 86.0101 135.704L88.5126 136.78C89.29 137.058 90.1537 136.952 90.8398 136.492L109.508 122.491C109.782 122.358 109.941 122.065 109.904 121.763C109.867 121.461 109.643 121.216 109.345 121.152L106.843 120.088C106.07 119.81 105.21 119.917 104.528 120.376L85.8475 134.377Z" stroke="black" stroke-width="0.1"/>
<path fill-rule="evenodd" clip-rule="evenodd" d="M92.0535 137.167C91.7797 137.301 91.6206 137.593 91.6573 137.895C91.694 138.197 91.9185 138.443 92.2161 138.506L94.7186 139.582C95.4926 139.855 96.3496 139.748 97.0333 139.295L115.614 125.281C115.888 125.146 116.045 124.851 116.006 124.549C115.966 124.246 115.738 124.002 115.439 123.942L112.936 122.866C112.162 122.593 111.305 122.7 110.622 123.154L92.0535 137.167Z" stroke="black" stroke-width="0.1"/>
<path d="M105.654 142.623C105.381 142.756 105.221 143.048 105.258 143.35C105.295 143.652 105.519 143.898 105.817 143.962L108.319 145.038C109.093 145.31 109.95 145.204 110.634 144.75L129.202 130.736C129.476 130.603 129.635 130.311 129.598 130.009C129.562 129.707 129.337 129.461 129.04 129.397L126.537 128.321C125.759 128.049 124.898 128.155 124.21 128.609L105.654 142.623Z" fill="#EE6078"/>
<path d="M133.494 150.643C133.344 150.768 133.356 150.918 133.494 150.993C133.694 151.071 133.92 151.043 134.095 150.918L143.967 143.511C144.039 143.483 144.087 143.414 144.087 143.336C144.087 143.258 144.039 143.189 143.967 143.161C143.762 143.091 143.536 143.119 143.354 143.236L133.494 150.643Z" fill="black"/>
<ellipse opacity="0.48" cx="85.8496" cy="123.485" rx="7.33216" ry="4.22913" transform="rotate(-7.09 85.8496 123.485)" fill="#EE6078"/>
</svg>
